<svg id="Capa_1" enable-background="new 0 0 511.977 511.977" height="512" viewBox="0 0 511.977 511.977" width="512" xmlns="http://www.w3.org/2000/svg"><g><path d="m511.977 208.545-8.531-26.258-161.45-23.46-72.204-146.298h-27.608l-72.203 146.298-161.45 23.46-8.531 26.258 116.826 113.877-27.579 160.798 22.336 16.228 144.405-75.918 144.405 75.918 22.336-16.228-27.579-160.798zm-255.989 181.091-132.17 69.486 25.242-147.174-106.928-104.228 147.771-21.473 66.085-133.903 66.085 133.903 147.771 21.473-106.927 104.229 25.242 147.174z"/><path d="m206.56 326.275h98.857v-98.857h-98.857zm30-68.857h38.857v38.857h-38.857z"/></g></svg>